#
# Object file
# Created by SpaceClaim
#

mtllib pen.mtl

# Component1\Solid
v -5 -2.88675134594812 100
v -5 2.88675134594813 100
v -5 2.88675134594813 0
v -5 -2.88675134594812 0
v -5 2.88675134594813 100
v 6.08938184021462E-15 5.77350269189626 100
v 6.08938184021462E-15 5.77350269189626 0
v -5 2.88675134594813 0
v 6.08938184021462E-15 5.77350269189626 100
v 5 2.88675134594812 100
v 5 2.88675134594812 0
v 6.08938184021462E-15 5.77350269189626 0
v 5 2.88675134594812 100
v 5 -2.88675134594813 100
v 5 -2.88675134594813 0
v 5 2.88675134594812 0
v 5 -2.88675134594813 100
v -4.85342755235326E-15 -5.77350269189625 100
v -4.85342755235326E-15 -5.77350269189625 0
v 5 -2.88675134594813 0
v -4.85342755235326E-15 -5.77350269189625 100
v -5 -2.88675134594812 100
v -5 -2.88675134594812 0
v -4.85342755235326E-15 -5.77350269189625 0
v -5 -2.88675134594812 100
v -4.85342755235326E-15 -5.77350269189625 100
v 5 -2.88675134594813 100
v 5 2.88675134594812 100
v 6.08938184021462E-15 5.77350269189626 100
v -5 2.88675134594813 100
v 5 -2.88675134594813 0
v -4.85342755235326E-15 -5.77350269189625 0
v -5 -2.88675134594812 0
v -5 2.88675134594813 0
v 6.08938184021462E-15 5.77350269189626 0
v 5 2.88675134594812 0
vn -1 1.20185167898973E-15 0
vn -1 1.20185167898973E-15 0
vn -1 1.20185167898973E-15 0
vn -1 1.20185167898973E-15 0
vn -0.499999999999999 0.866025403784439 0
vn -0.499999999999999 0.866025403784439 0
vn -0.499999999999999 0.866025403784439 0
vn -0.499999999999999 0.866025403784439 0
vn 0.500000000000001 0.866025403784438 0
vn 0.500000000000001 0.866025403784438 0
vn 0.500000000000001 0.866025403784438 0
vn 0.500000000000001 0.866025403784438 0
vn 1 -9.01388759242296E-16 0
vn 1 -9.01388759242296E-16 0
vn 1 -9.01388759242296E-16 0
vn 1 -9.01388759242296E-16 0
vn 0.499999999999999 -0.866025403784439 0
vn 0.499999999999999 -0.866025403784439 0
vn 0.499999999999999 -0.866025403784439 0
vn 0.499999999999999 -0.866025403784439 0
vn -0.500000000000001 -0.866025403784438 0
vn -0.500000000000001 -0.866025403784438 0
vn -0.500000000000001 -0.866025403784438 0
vn -0.500000000000001 -0.866025403784438 0
vn 0 0 1
vn 0 0 1
vn 0 0 1
vn 0 0 1
vn 0 0 1
vn 0 0 1
vn 0 0 -1
vn 0 0 -1
vn 0 0 -1
vn 0 0 -1
vn 0 0 -1
vn 0 0 -1
vt 0.00288675134594813 0.1
vt -0.00288675134594813 0.1
vt -0.00288675134594813 0
vt 0.00288675134594813 0
vt 0.00288675134594813 0.1
vt -0.00288675134594813 0.1
vt -0.00288675134594813 0
vt 0.00288675134594813 0
vt 0.00288675134594813 0.1
vt -0.00288675134594813 0.1
vt -0.00288675134594813 0
vt 0.00288675134594813 0
vt 0.00288675134594813 0.1
vt -0.00288675134594813 0.1
vt -0.00288675134594813 0
vt 0.00288675134594813 0
vt 0.00288675134594813 0.1
vt -0.00288675134594813 0.1
vt -0.00288675134594813 0
vt 0.00288675134594813 0
vt 0.00288675134594813 0.1
vt -0.00288675134594813 0.1
vt -0.00288675134594813 0
vt 0.00288675134594813 0
vt -0.005 -0.00288675134594812
vt -4.85342755235326E-18 -0.00577350269189625
vt 0.005 -0.00288675134594813
vt 0.005 0.00288675134594812
vt 6.08938184021462E-18 0.00577350269189626
vt -0.005 0.00288675134594813
vt 0.005 -0.00288675134594813
vt -4.85342755235326E-18 -0.00577350269189625
vt -0.005 -0.00288675134594812
vt -0.005 0.00288675134594813
vt 6.08938184021462E-18 0.00577350269189626
vt 0.005 0.00288675134594812

o Component1\Solid
g Component1\Solid
s off

usemtl c_0

# face 0
f 1/1/1 2/2/2 4/4/4
f 4/4/4 2/2/2 3/3/3

# face 1
f 5/5/5 6/6/6 8/8/8
f 8/8/8 6/6/6 7/7/7

# face 2
f 9/9/9 10/10/10 12/12/12
f 12/12/12 10/10/10 11/11/11

# face 3
f 13/13/13 14/14/14 16/16/16
f 16/16/16 14/14/14 15/15/15

# face 4
f 17/17/17 18/18/18 20/20/20
f 20/20/20 18/18/18 19/19/19

# face 5
f 21/21/21 22/22/22 24/24/24
f 24/24/24 22/22/22 23/23/23

# face 6
f 26/26/26 27/27/27 25/25/25
f 25/25/25 27/27/27 30/30/30
f 27/27/27 28/28/28 30/30/30
f 30/30/30 28/28/28 29/29/29

# face 7
f 32/32/32 33/33/33 31/31/31
f 31/31/31 33/33/33 36/36/36
f 33/33/33 34/34/34 36/36/36
f 36/36/36 34/34/34 35/35/35

# Component2\Solid
v -2.38524477946811E-15 2.3094010767585 -9
v 2 1.15470053837925 -9
v 2 -1.15470053837925 -9
v 1.95156391047391E-15 -2.3094010767585 -9
v -2 -1.15470053837925 -9
v -2 1.15470053837925 -9
v -3.20057916468901E-15 5.68606561028994 0
v -4.92427726609615 2.84303280514496 0
v -4.92427726609615 -2.84303280514497 0
v 3.3361044362497E-15 -5.68606561028994 0
v 4.92427726609615 -2.84303280514497 0
v 4.92427726609615 2.84303280514497 0
v -4.92427726609615 2.84303280514496 0
v -3.20057916468901E-15 5.68606561028994 0
v -2.38524477946811E-15 2.3094010767585 -9
v -2 1.15470053837925 -9
v -3.20057916468901E-15 5.68606561028994 0
v 4.92427726609615 2.84303280514497 0
v 2 1.15470053837925 -9
v -2.38524477946811E-15 2.3094010767585 -9
v 4.92427726609615 2.84303280514497 0
v 4.92427726609615 -2.84303280514497 0
v 2 -1.15470053837925 -9
v 2 1.15470053837925 -9
v -4.92427726609615 -2.84303280514497 0
v -4.92427726609615 2.84303280514496 0
v -2 1.15470053837925 -9
v -2 -1.15470053837925 -9
v 3.3361044362497E-15 -5.68606561028994 0
v -4.92427726609615 -2.84303280514497 0
v -2 -1.15470053837925 -9
v 1.95156391047391E-15 -2.3094010767585 -9
v 4.92427726609615 -2.84303280514497 0
v 3.3361044362497E-15 -5.68606561028994 0
v 1.95156391047391E-15 -2.3094010767585 -9
v 2 -1.15470053837925 -9
vn 0 0 -1
vn 0 0 -1
vn 0 0 -1
vn 0 0 -1
vn 0 0 -1
vn 0 0 -1
vn 0 0 1
vn 0 0 1
vn 0 0 1
vn 0 0 1
vn 0 0 1
vn 0 0 1
vn -0.475528258147577 0.823639103546332 -0.309016994374947
vn -0.475528258147577 0.823639103546332 -0.309016994374947
vn -0.475528258147577 0.823639103546332 -0.309016994374947
vn -0.475528258147577 0.823639103546332 -0.309016994374947
vn 0.475528258147577 0.823639103546332 -0.309016994374947
vn 0.475528258147577 0.823639103546332 -0.309016994374947
vn 0.475528258147577 0.823639103546332 -0.309016994374947
vn 0.475528258147577 0.823639103546332 -0.309016994374947
vn 0.951056516295154 0 -0.309016994374947
vn 0.951056516295154 0 -0.309016994374947
vn 0.951056516295154 0 -0.309016994374947
vn 0.951056516295154 0 -0.309016994374947
vn -0.951056516295154 -4.28635826596295E-16 -0.309016994374947
vn -0.951056516295154 -4.28635826596295E-16 -0.309016994374947
vn -0.951056516295154 -4.28635826596295E-16 -0.309016994374947
vn -0.951056516295154 -4.28635826596295E-16 -0.309016994374947
vn -0.475528258147576 -0.823639103546332 -0.309016994374947
vn -0.475528258147576 -0.823639103546332 -0.309016994374947
vn -0.475528258147576 -0.823639103546332 -0.309016994374947
vn -0.475528258147576 -0.823639103546332 -0.309016994374947
vn 0.475528258147577 -0.823639103546332 -0.309016994374947
vn 0.475528258147577 -0.823639103546332 -0.309016994374947
vn 0.475528258147577 -0.823639103546332 -0.309016994374947
vn 0.475528258147577 -0.823639103546332 -0.309016994374947
vt -2.38524477946811E-18 0.0023094010767585
vt 0.002 0.00115470053837925
vt 0.002 -0.00115470053837925
vt 1.95156391047391E-18 -0.0023094010767585
vt -0.002 -0.00115470053837925
vt -0.002 0.00115470053837925
vt -3.20057916468901E-18 0.00568606561028994
vt -0.00492427726609615 0.00284303280514497
vt -0.00492427726609615 -0.00284303280514497
vt 3.3361044362497E-18 -0.00568606561028994
vt 0.00492427726609615 -0.00284303280514497
vt 0.00492427726609615 0.00284303280514497
vt 0.00968486019060517 0.00195900897102808
vt 0.00700165265142629 0.00697216560395065
vt -0.000544893675596388 0.00101804922063149
vt 0.000544893675596392 -0.00101804922063149
vt -0.00700165265142628 0.00697216560395065
vt -0.00968486019060517 0.00195900897102809
vt -0.000544893675596394 -0.00101804922063149
vt 0.00054489367559639 0.00101804922063149
vt -0.0094631600181444 0.00284303280514497
vt -0.0094631600181444 -0.00284303280514497
vt -2.05186434176143E-18 -0.00115470053837925
vt -2.05186434176143E-18 0.00115470053837925
vt 0.0094631600181444 -0.00284303280514497
vt 0.0094631600181444 0.00284303280514497
vt 2.18587910041594E-18 0.00115470053837925
vt 1.91784958310693E-18 -0.00115470053837925
vt 0.00700165265142628 -0.00697216560395065
vt 0.00968486019060517 -0.00195900897102809
vt 0.000544893675596393 0.00101804922063149
vt -0.00054489367559639 -0.00101804922063149
vt -0.00968486019060517 -0.00195900897102809
vt -0.00700165265142629 -0.00697216560395065
vt 0.000544893675596388 -0.00101804922063149
vt -0.000544893675596392 0.00101804922063149

o Component2\Solid
g Component2\Solid
s off

usemtl c_0

# face 0
f 37/37/37 38/38/38 42/42/42
f 42/42/42 38/38/38 41/41/41
f 38/38/38 39/39/39 41/41/41
f 41/41/41 39/39/39 40/40/40

# face 1
f 43/43/43 44/44/44 48/48/48
f 48/48/48 44/44/44 47/47/47
f 44/44/44 45/45/45 47/47/47
f 47/47/47 45/45/45 46/46/46

# face 2
f 50/50/50 51/51/51 49/49/49
f 49/49/49 51/51/51 52/52/52

# face 3
f 53/53/53 54/54/54 56/56/56
f 56/56/56 54/54/54 55/55/55

# face 4
f 57/57/57 58/58/58 60/60/60
f 60/60/60 58/58/58 59/59/59

# face 5
f 62/62/62 63/63/63 61/61/61
f 61/61/61 63/63/63 64/64/64

# face 6
f 65/65/65 66/66/66 68/68/68
f 68/68/68 66/66/66 67/67/67

# face 7
f 70/70/70 71/71/71 69/69/69
f 69/69/69 71/71/71 72/72/72

# Component3\Solid
v 0.835 1.18068130049278 -10.835
v 1.44 0.831384387633062 -10.23
v 1.44 -0.831384387633061 -10.23
v 0.835000000000001 -1.18068130049278 -10.835
v 0.169999999999999 -0.0288675134594802 -11.5
v 0.169999999999999 0.0288675134594806 -11.5
v 1.44 -0.831384387633061 -10.23
v 1.44 0.831384387633062 -10.23
v 1.44 0.831384387633061 -9
v 1.44 -0.831384387633061 -9
v 1.44 0.831384387633062 -10.23
v 0.835 1.18068130049278 -10.835
v -7.58941520739853E-16 1.66276877526612 -10
v -7.1303110281018E-16 1.66276877526612 -9
v 1.44 0.831384387633061 -9
v 0.835 1.18068130049278 -10.835
v 0.169999999999999 0.0288675134594806 -11.5
v 0.12 1.76182853028894E-16 -11.5
v -1.44 -7.58941520739853E-16 -10.72
v -1.44 0.831384387633061 -10
v -7.58941520739853E-16 1.66276877526612 -10
v 0.169999999999999 -0.0288675134594802 -11.5
v 0.835000000000001 -1.18068130049278 -10.835
v 9.21571846612679E-16 -1.66276877526612 -10
v -1.44 -0.831384387633062 -10
v -1.44 -7.58941520739853E-16 -10.72
v 0.12 1.76182853028894E-16 -11.5
v -1.44 -0.831384387633062 -10
v 9.21571846612679E-16 -1.66276877526612 -10
v 7.77248161097986E-16 -1.66276877526612 -9
v -1.44 -0.831384387633062 -9
v 0.835000000000001 -1.18068130049278 -10.835
v 1.44 -0.831384387633061 -10.23
v 1.44 -0.831384387633061 -9
v 7.77248161097986E-16 -1.66276877526612 -9
v 9.21571846612679E-16 -1.66276877526612 -10
v -7.58941520739853E-16 1.66276877526612 -10
v -1.44 0.831384387633061 -10
v -1.44 0.831384387633061 -9
v -7.1303110281018E-16 1.66276877526612 -9
v -1.44 0.831384387633061 -9
v -1.44 -0.831384387633062 -9
v 7.77248161097986E-16 -1.66276877526612 -9
v 1.44 -0.831384387633061 -9
v 1.44 0.831384387633061 -9
v -7.1303110281018E-16 1.66276877526612 -9
v 0.169999999999999 0.0288675134594806 -11.5
v 0.169999999999999 -0.0288675134594802 -11.5
v 0.12 1.76182853028894E-16 -11.5
v -1.44 -7.58941520739853E-16 -10.72
v -1.44 -0.831384387633062 -10
v -1.44 -0.831384387633062 -9
v -1.44 0.831384387633061 -9
v -1.44 0.831384387633061 -10
vn 0.707106781186548 2.65574210060648E-16 -0.707106781186547
vn 0.707106781186548 2.65574210060648E-16 -0.707106781186547
vn 0.707106781186548 2.65574210060648E-16 -0.707106781186547
vn 0.707106781186548 2.65574210060648E-16 -0.707106781186547
vn 0.707106781186548 2.65574210060648E-16 -0.707106781186547
vn 0.707106781186548 2.65574210060648E-16 -0.707106781186547
vn 1 3.7557864968429E-16 0
vn 1 3.7557864968429E-16 0
vn 1 3.7557864968429E-16 0
vn 1 3.7557864968429E-16 0
vn 0.5 0.866025403784439 0
vn 0.5 0.866025403784439 0
vn 0.5 0.866025403784439 0
vn 0.5 0.866025403784439 0
vn 0.5 0.866025403784439 0
vn -0.353553390593274 0.612372435695794 -0.707106781186548
vn -0.353553390593274 0.612372435695794 -0.707106781186548
vn -0.353553390593274 0.612372435695794 -0.707106781186548
vn -0.353553390593274 0.612372435695794 -0.707106781186548
vn -0.353553390593274 0.612372435695794 -0.707106781186548
vn -0.353553390593274 0.612372435695794 -0.707106781186548
vn -0.353553390593273 -0.612372435695795 -0.707106781186548
vn -0.353553390593273 -0.612372435695795 -0.707106781186548
vn -0.353553390593273 -0.612372435695795 -0.707106781186548
vn -0.353553390593273 -0.612372435695795 -0.707106781186548
vn -0.353553390593273 -0.612372435695795 -0.707106781186548
vn -0.353553390593273 -0.612372435695795 -0.707106781186548
vn -0.499999999999999 -0.866025403784439 0
vn -0.499999999999999 -0.866025403784439 0
vn -0.499999999999999 -0.866025403784439 0
vn -0.499999999999999 -0.866025403784439 0
vn 0.5 -0.866025403784438 0
vn 0.5 -0.866025403784438 0
vn 0.5 -0.866025403784438 0
vn 0.5 -0.866025403784438 0
vn 0.5 -0.866025403784438 0
vn -0.5 0.866025403784439 0
vn -0.5 0.866025403784439 0
vn -0.5 0.866025403784439 0
vn -0.5 0.866025403784439 0
vn 0 0 1
vn 0 0 1
vn 0 0 1
vn 0 0 1
vn 0 0 1
vn 0 0 1
vn 0 0 -1
vn 0 0 -1
vn 0 0 -1
vn -1 -5.63367974526434E-16 0
vn -1 -5.63367974526434E-16 0
vn -1 -5.63367974526434E-16 0
vn -1 -5.63367974526434E-16 0
vn -1 -5.63367974526434E-16 0
vt -4.24264068711936E-05 0.00118068130049278
vt -0.000898025612106915 0.000831384387633061
vt -0.000898025612106916 -0.000831384387633061
vt -4.24264068711944E-05 -0.00118068130049278
vt 0.000898025612106915 -2.88675134594803E-05
vt 0.000898025612106915 2.88675134594805E-05
vt 0.000831384387633061 0.00123
vt -0.000831384387633061 0.00123
vt -0.000831384387633061 -1.73472347597681E-18
vt 0.000831384387633061 -1.73472347597681E-18
vt 0.000831384387633061 0.00123
vt 0.000132790561913615 0.001835
vt -0.000831384387633061 0.001
vt -0.000831384387633061 -1.73472347597681E-18
vt 0.000831384387633061 -1.73472347597681E-18
vt -0.0010934372409974 0.000737599710773624
vt -0.000796040199989925 -0.000719342292190119
vt -0.00075131884043993 -0.000755857129357129
vt 0.000992814182009906 -0.000755857129357129
vt 0.00131480797076988 0.000295770181052789
vt 2.68328157299972E-05 0.00134739749146271
vt -0.000796040199989924 0.00071934229219012
vt -0.0010934372409974 -0.000737599710773623
vt 2.68328157299959E-05 -0.00134739749146271
vt 0.00131480797076988 -0.000295770181052791
vt 0.000992814182009907 0.000755857129357128
vt -0.00075131884043993 0.00075585712935713
vt 0.000831384387633061 0.001
vt -0.000831384387633061 0.001
vt -0.000831384387633061 -1.73472347597681E-18
vt 0.000831384387633061 -1.73472347597681E-18
vt -0.000132790561913614 0.001835
vt -0.00083138438763306 0.00123
vt -0.000831384387633061 -1.73472347597681E-18
vt 0.000831384387633061 -1.73472347597681E-18
vt 0.000831384387633061 0.001
vt 0.000831384387633061 0.001
vt -0.000831384387633061 0.001
vt -0.000831384387633061 -1.73472347597681E-18
vt 0.000831384387633061 -1.73472347597681E-18
vt 0.00144 0.000831384387633061
vt 0.00144 -0.000831384387633062
vt -1.21092903009219E-18 -0.00166276877526612
vt -0.00144 -0.000831384387633061
vt -0.00144 0.000831384387633061
vt 2.79350233815978E-19 0.00166276877526612
vt -0.000169999999999999 2.88675134594806E-05
vt -0.000169999999999999 -2.88675134594802E-05
vt -0.000120000000000001 1.76182853028894E-19
vt -8.57587151977556E-19 0.00172
vt -0.000831384387633062 0.001
vt -0.000831384387633062 -1.73472347597681E-18
vt 0.000831384387633061 -1.73472347597681E-18
vt 0.000831384387633061 0.001

o Component3\Solid
g Component3\Solid
s off

usemtl c_1

# face 0
f 73/73/73 74/74/74 78/78/78
f 78/78/78 74/74/74 75/75/75
f 78/78/78 75/75/75 77/77/77
f 77/77/77 75/75/75 76/76/76

# face 1
f 79/79/79 80/80/80 82/82/82
f 82/82/82 80/80/80 81/81/81

# face 2
f 84/84/84 85/85/85 83/83/83
f 83/83/83 85/85/85 87/87/87
f 85/85/85 86/86/86 87/87/87

# face 3
f 88/88/88 89/89/89 93/93/93
f 93/93/93 89/89/89 90/90/90
f 93/93/93 90/90/90 92/92/92
f 92/92/92 90/90/90 91/91/91

# face 4
f 95/95/95 96/96/96 94/94/94
f 94/94/94 96/96/96 99/99/99
f 96/96/96 97/97/97 99/99/99
f 99/99/99 97/97/97 98/98/98

# face 5
f 100/100/100 101/101/101 103/103/103
f 103/103/103 101/101/101 102/102/102

# face 6
f 104/104/104 105/105/105 108/108/108
f 108/108/108 105/105/105 106/106/106
f 108/108/108 106/106/106 107/107/107

# face 7
f 109/109/109 110/110/110 112/112/112
f 112/112/112 110/110/110 111/111/111

# face 8
f 114/114/114 116/116/116 113/113/113
f 113/113/113 116/116/116 117/117/117
f 113/113/113 117/117/117 118/118/118
f 114/114/114 115/115/115 116/116/116

# face 9
f 119/119/119 120/120/120 121/121/121

# face 10
f 122/122/122 123/123/123 126/126/126
f 126/126/126 123/123/123 125/125/125
f 123/123/123 124/124/124 125/125/125
